<?xml version="1.0" standalone="no"?>
<!DOCTYPE svg PUBLIC "-//W3C//DTD SVG 20010904//EN"
 "http://www.w3.org/TR/2001/REC-SVG-20010904/DTD/svg10.dtd">
<svg version="1.0" xmlns="http://www.w3.org/2000/svg"
 width="343.000000pt" height="291.000000pt" viewBox="0 0 343.000000 291.000000"
 preserveAspectRatio="xMidYMid meet">

<g transform="translate(0.000000,291.000000) scale(0.100000,-0.100000)"
fill="#000000" stroke="none">
<path d="M1718 2860 c-4 -14 -12 -81 -18 -150 -19 -225 -33 -348 -40 -360 -5
-8 -15 -8 -34 0 -90 34 -191 -13 -253 -119 -21 -35 -27 -61 -30 -130 -5 -80
-3 -89 21 -124 l26 -38 -28 -9 c-28 -10 -50 -22 -90 -48 l-23 -15 1 194 c2
349 3 340 -21 346 -13 4 -29 25 -43 57 -13 28 -46 81 -74 118 l-51 67 32 6
c39 7 108 -7 142 -29 37 -24 62 -83 81 -187 9 -52 22 -97 28 -101 34 -23 36
-11 36 202 l0 210 -240 0 c-210 0 -249 3 -312 20 -87 24 -163 25 -242 5 -62
-16 -191 -77 -216 -101 -10 -10 -1 -8 25 5 104 49 224 71 319 57 36 -6 46 -11
46 -27 0 -14 7 -19 29 -19 47 0 71 -39 71 -116 l0 -64 -68 0 c-117 0 -220 -41
-309 -123 -51 -47 -107 -135 -122 -194 -7 -24 -15 -43 -19 -43 -29 0 -132 98
-184 174 -36 52 -96 200 -99 244 -3 37 -17 -47 -18 -105 -1 -84 15 -155 55
-239 37 -80 139 -196 209 -240 35 -23 48 -40 67 -87 43 -109 134 -202 239
-246 l47 -19 -63 78 c-78 96 -99 151 -100 250 0 81 28 185 47 174 7 -5 8 -2 4
5 -5 7 0 18 10 26 11 8 16 15 12 15 -3 0 10 18 29 40 20 22 40 37 44 34 5 -3
12 1 15 10 3 8 19 18 35 21 16 4 29 10 29 14 0 4 29 12 65 17 52 8 65 7 70 -4
3 -7 5 -65 5 -128 l0 -114 -53 0 c-93 0 -185 -60 -203 -133 l-6 -27 57 30 c57
30 126 39 183 24 l22 -6 0 -237 c0 -266 -3 -280 -63 -295 -32 -8 -37 -13 -37
-38 l0 -28 113 -1 c151 -2 269 1 279 7 4 3 8 16 8 28 0 19 -7 25 -34 30 -55
10 -65 37 -65 166 0 78 4 121 14 140 8 15 11 30 8 34 -4 3 -1 6 6 6 8 0 11 -6
7 -16 -3 -8 -2 -12 4 -9 15 9 70 -86 70 -122 0 -85 83 -211 160 -243 l30 -12
-82 -97 c-44 -53 -88 -102 -96 -108 -9 -7 -40 -13 -69 -13 l-53 0 0 75 c0 66
-2 75 -18 75 -13 0 -27 -20 -49 -69 -33 -74 -51 -85 -120 -74 -26 5 -38 0 -63
-25 -25 -25 -30 -39 -30 -76 0 -41 5 -52 50 -101 48 -53 60 -75 42 -75 -13 0
-39 32 -46 58 -5 13 -15 22 -27 22 -18 0 -20 -6 -17 -67 l3 -68 53 -2 c30 -1
55 -3 57 -5 2 -2 -53 -75 -122 -163 -295 -379 -492 -642 -458 -614 37 30 310
263 315 269 22 24 74 59 81 54 5 -3 8 0 7 8 -2 7 5 12 14 12 10 -1 14 4 11 12
-3 8 -1 14 4 14 5 0 28 18 51 40 22 22 48 40 57 40 9 0 14 4 11 9 -6 10 33 48
54 53 17 4 40 23 40 35 0 4 14 19 31 33 17 14 45 37 61 53 16 15 33 25 39 22
5 -4 9 0 9 8 0 8 18 27 40 42 22 15 40 31 40 36 0 13 56 39 84 39 24 0 24 -1
10 -29 -28 -57 24 -115 81 -89 26 12 43 42 70 128 10 30 22 61 28 67 5 7 7 13
4 13 -3 0 3 26 14 58 11 31 22 64 24 72 1 8 8 14 15 12 6 -1 9 2 6 7 -8 12 17
31 30 23 14 -9 64 -135 71 -178 4 -22 2 -34 -6 -34 -6 0 -11 -9 -11 -20 0 -14
7 -20 24 -20 21 0 28 -11 57 -95 19 -52 36 -95 39 -95 3 0 14 25 25 56 19 55
62 114 84 114 6 0 11 3 11 8 0 4 24 8 54 10 l53 3 6 -39 c11 -64 75 -112 152
-112 87 0 155 51 155 116 l0 34 130 0 c76 0 130 4 130 10 0 5 13 2 29 -7 24
-14 33 -15 59 -4 38 16 61 63 42 86 -7 9 -19 14 -26 11 -9 -3 -12 15 -12 72 1
75 2 78 37 112 l35 35 -37 3 -37 3 -1 57 c-1 31 -1 65 0 75 2 11 -5 17 -18 17
-16 0 -28 -16 -51 -67 -17 -38 -38 -79 -46 -91 -14 -22 -17 -22 -28 -7 -6 9
-30 19 -53 22 l-41 5 -7 84 c-4 46 -9 84 -11 84 -3 0 -31 -14 -64 -30 -59 -30
-76 -55 -45 -66 10 -4 15 -19 14 -48 -1 -22 -4 -31 -6 -19 -5 28 -79 83 -112
83 l-24 0 22 -24 c14 -15 21 -33 19 -48 -3 -21 -8 -23 -54 -23 -40 0 -58 -6
-86 -27 l-35 -27 -2 63 c-1 37 5 78 14 99 8 20 15 48 15 62 0 22 4 25 38 25
20 0 46 7 56 15 10 8 24 12 30 8 6 -3 9 -3 5 0 -3 4 20 33 50 65 l56 59 19
-36 c28 -54 86 -110 126 -121 44 -12 105 3 138 33 24 22 51 77 79 157 30 86
32 106 12 136 -13 20 -19 24 -22 14 -33 -107 -66 -160 -101 -160 -32 0 -54 28
-82 105 -32 89 -32 153 1 189 14 16 31 29 38 30 7 2 19 6 27 9 12 5 101 15
146 17 7 0 15 20 18 45 6 40 10 45 39 50 36 7 75 -5 119 -36 34 -25 43 -20 33
18 -11 46 -75 97 -144 117 -34 10 -64 23 -65 29 -2 7 -16 53 -32 102 -35 111
-36 115 -18 115 8 0 14 5 14 11 0 17 92 2 152 -24 120 -54 200 -172 206 -309
6 -120 -18 -181 -120 -300 l-49 -57 48 21 c52 23 100 55 151 102 36 34 102
143 102 169 0 10 5 17 11 17 6 0 17 7 26 16 9 8 23 12 31 9 9 -3 14 -3 10 0
-3 4 19 34 50 67 32 33 73 84 93 114 20 29 40 50 44 46 5 -4 5 -2 2 4 -4 6 0
24 8 40 26 53 45 148 44 224 -1 112 -12 127 -33 49 -28 -100 -70 -179 -132
-248 -50 -55 -131 -119 -139 -109 -1 2 -10 26 -19 54 -44 134 -146 232 -300
290 l-49 18 49 44 c27 24 79 68 117 99 l67 56 53 -23 c81 -34 86 -34 32 0 -27
18 -54 36 -58 40 -4 4 25 34 65 66 39 32 79 65 88 72 22 19 -59 -22 -143 -72
-72 -42 -74 -42 -113 -29 -61 22 -166 27 -236 13 -188 -38 -358 -197 -418
-390 -17 -55 -18 -55 -61 -58 -23 -2 -53 -1 -66 3 -23 5 -23 5 -23 180 l0 175
-23 0 c-20 0 -26 -11 -51 -87 -34 -106 -105 -259 -140 -306 -26 -34 -35 -87
-15 -87 10 0 7 -18 -13 -70 -10 -24 -11 -23 -24 20 -22 73 -64 401 -87 690 -3
31 -4 32 -9 10z m1156 -129 c3 -5 -20 -25 -52 -46 -31 -21 -103 -71 -158 -111
-56 -41 -106 -74 -112 -74 -22 0 -121 -42 -156 -65 -20 -13 -36 -22 -36 -18 0
3 14 34 31 70 53 106 174 207 289 239 52 14 186 18 194 5z m-1525 -178 c-1
-139 -3 -165 -10 -120 -15 104 -54 197 -92 222 -33 21 -132 38 -178 30 l-39
-7 0 -294 c0 -229 3 -294 13 -294 24 1 89 28 107 45 25 23 50 99 60 183 5 43
7 -53 7 -263 0 -227 -2 -306 -8 -253 -10 96 -26 155 -50 190 -23 31 -105 66
-120 51 -6 -6 -9 -113 -7 -291 3 -267 4 -282 24 -309 12 -16 33 -29 47 -31 15
-2 27 -8 27 -13 0 -5 -74 -9 -177 -8 -142 1 -171 3 -145 12 69 22 67 -2 70
637 2 403 0 586 -8 613 -9 31 -19 42 -53 58 l-42 19 288 0 287 0 -1 -177z
m767 -243 l66 0 -32 -40 c-26 -33 -38 -40 -66 -40 l-34 0 1 -317 c1 -327 7
-415 28 -436 16 -16 41 1 69 49 21 37 22 37 16 9 -11 -47 -51 -122 -76 -139
-54 -38 -107 -13 -144 69 -17 36 -19 77 -22 403 l-3 362 -30 0 c-35 0 -37 17
-9 53 33 42 115 221 141 307 l24 79 3 -180 2 -179 66 0z m-965 127 c-10 -9
-11 -8 -5 6 3 10 9 15 12 12 3 -3 0 -11 -7 -18z m6 -33 c2 -5 -5 -10 -16 -10
-11 0 -17 5 -14 14 6 14 25 12 30 -4z m487 -85 c27 -21 50 -60 69 -113 6 -18
13 -175 16 -378 3 -190 10 -350 14 -354 4 -5 17 -3 28 5 19 11 20 10 14 -11
-20 -65 -59 -108 -98 -108 -35 0 -75 53 -83 109 l-7 52 -35 -53 c-42 -62 -78
-96 -111 -105 -33 -8 -52 6 -78 57 -29 55 -32 180 -7 256 22 63 85 152 168
234 l66 64 0 114 c0 122 -13 172 -49 192 -28 14 -71 -5 -88 -40 -10 -21 -8
-39 7 -99 22 -81 15 -145 -16 -168 -51 -37 -94 16 -94 114 0 101 44 183 125
234 42 27 124 26 159 -2z m861 -3 c56 -56 91 -167 101 -328 l7 -98 -131 0
-132 0 0 -42 c1 -160 58 -325 120 -346 50 -18 79 6 116 95 27 67 31 56 8 -25
-42 -146 -112 -222 -190 -207 -117 21 -179 196 -177 495 1 166 17 256 63 354
41 87 86 126 146 126 34 0 51 -6 69 -24z m-321 -117 c-10 -11 -24 -17 -31 -14
-8 2 -11 0 -8 -5 4 -6 -4 -19 -17 -30 -40 -33 -68 -21 -30 13 10 10 22 14 27
10 4 -5 5 -3 2 3 -3 6 1 20 11 30 9 10 26 33 37 49 l20 30 3 -33 c2 -22 -3
-41 -14 -53z m-636 49 c15 -15 14 -104 -2 -218 -9 -67 -15 -85 -29 -88 -23 -5
-23 34 1 47 9 6 12 11 5 11 -7 0 -10 11 -7 29 5 27 0 54 -27 150 -11 41 -11
45 10 63 27 21 33 22 49 6z m-461 -47 c1 -11 -5 -25 -13 -32 -17 -14 -17 -9
-4 25 11 31 15 32 17 7z m813 -52 c0 -37 -4 -58 -10 -54 -5 3 -10 31 -10 61 0
30 5 54 10 54 6 0 10 -27 10 -61z m294 -165 c-10 -8 -13 -13 -6 -9 9 5 12 -11
12 -61 l0 -68 -40 39 c-29 29 -37 42 -29 51 6 7 8 17 5 22 -3 6 1 15 9 22 8 7
15 9 15 6 0 -4 10 0 22 8 28 20 38 11 12 -10z m-704 -34 c0 -5 -5 -10 -11 -10
-5 0 -7 5 -4 10 3 6 8 10 11 10 2 0 4 -4 4 -10z m320 -6 c0 -8 -6 -11 -17 -7
-10 4 -14 2 -9 -5 3 -6 2 -13 -4 -17 -11 -7 -13 5 -5 28 7 17 35 18 35 1z
m-360 -91 c-71 -79 -109 -158 -117 -239 -7 -74 -16 -87 -32 -42 -15 43 -14 94
4 111 8 8 12 17 9 20 -9 8 8 57 17 51 5 -3 9 5 9 18 0 33 46 82 105 112 28 14
51 26 53 26 2 0 -20 -26 -48 -57z m689 -142 c6 -19 11 -55 11 -80 0 -52 -32
-131 -52 -130 -10 0 -10 2 1 6 11 5 11 7 0 14 -11 7 -11 9 -1 9 9 0 8 7 -4 25
-10 16 -12 25 -5 25 7 0 9 9 5 24 -4 17 1 34 16 54 24 33 20 52 -11 52 -23 0
-24 8 -2 32 19 21 26 16 42 -31z m-189 -339 c0 -30 -25 -78 -45 -86 -51 -19
-93 5 -79 46 4 13 7 27 6 32 -4 12 19 37 29 31 4 -3 13 4 19 15 6 11 15 18 20
15 5 -3 12 0 16 6 9 15 33 -27 34 -59z m390 -177 l0 -104 26 24 c31 29 56 32
78 9 19 -18 16 -2 24 -152 l7 -122 -45 0 c-34 0 -41 3 -32 12 19 19 16 222 -3
238 -13 10 -19 9 -36 -6 -19 -17 -20 -28 -17 -131 l3 -113 -45 0 c-34 0 -41 3
-32 12 15 15 17 388 2 388 -21 0 -9 17 23 33 17 8 35 16 40 16 4 1 7 -46 7
-104z m-1272 -66 l27 -1 -27 -11 -28 -11 0 -112 c0 -62 4 -115 9 -119 5 -3 17
2 25 11 9 8 16 11 16 5 0 -13 -40 -41 -59 -41 -8 0 -23 7 -33 17 -15 14 -18
32 -18 130 0 94 -3 113 -15 113 -12 0 -10 8 9 38 13 20 32 60 42 87 l19 50 3
-77 c3 -77 3 -78 30 -79z m1514 76 l-4 -75 26 0 c16 0 25 -4 21 -10 -3 -5 -15
-10 -26 -10 -17 0 -19 -8 -19 -97 0 -124 6 -146 34 -137 21 6 21 6 1 -10 -28
-22 -61 -20 -79 6 -12 17 -16 49 -16 130 0 61 -4 108 -9 108 -6 0 2 24 18 53
15 28 32 67 39 85 6 17 12 32 14 32 2 0 2 -34 0 -75z m-632 50 c20 -24 3 -57
-28 -53 -27 3 -39 26 -28 54 7 18 40 18 56 -1z m262 -62 c9 -8 14 -21 11 -29
-3 -8 0 -21 7 -29 11 -13 7 -15 -24 -15 -36 0 -47 -15 -27 -35 21 -22 21 -70
1 -103 -36 -58 -98 -68 -141 -22 -36 37 -44 69 -29 115 15 44 56 67 113 63 35
-3 43 1 53 21 9 18 10 30 2 44 -11 21 1 17 34 -10z m-433 -13 c6 0 11 -5 11
-11 0 -5 -4 -7 -10 -4 -5 3 -18 1 -28 -4 -16 -9 -19 -7 -16 17 3 39 3 39 18
20 7 -10 18 -18 25 -18z m-79 -50 l0 -39 26 24 c31 29 56 32 78 9 9 -8 16 -16
17 -17 1 -1 4 -59 7 -130 l7 -127 -44 0 c-35 0 -42 3 -33 12 13 13 17 202 6
232 -8 20 -23 20 -46 -1 -15 -14 -18 -32 -18 -118 0 -65 4 -105 12 -113 9 -9
0 -12 -42 -12 -42 0 -51 3 -42 12 16 16 17 254 1 264 -8 4 1 14 22 25 47 25
49 24 49 -21z m252 -100 c-2 -87 1 -147 8 -160 10 -19 8 -20 -42 -20 -36 0
-48 3 -39 9 22 14 22 248 1 261 -8 5 -12 10 -10 12 8 6 74 37 80 37 3 1 4 -62
2 -139z m-1052 100 c9 -6 17 -5 22 3 4 7 7 -8 7 -33 0 -33 -2 -40 -8 -25 -13
31 -46 56 -65 49 -30 -12 -18 -48 34 -97 58 -55 68 -101 33 -156 -13 -21 -20
-23 -63 -18 -33 4 -50 2 -54 -6 -2 -7 -5 11 -5 38 l-1 50 17 -33 c15 -32 51
-50 72 -37 23 14 9 50 -39 101 -42 44 -50 59 -50 90 0 62 55 103 100 74z m360
-12 c18 -19 20 -35 20 -130 0 -93 2 -108 16 -108 14 0 14 -3 4 -15 -18 -21
-56 -19 -73 5 -14 20 -14 20 -31 1 -26 -28 -55 -32 -77 -10 -36 36 -14 92 56
135 41 27 45 32 45 70 0 51 -19 71 -50 54 -15 -8 -19 -17 -14 -28 14 -35 10
-57 -14 -60 -45 -7 -41 67 6 92 40 22 88 20 112 -6z m113 -7 c-5 -19 31 -145
48 -166 4 -6 0 -35 -9 -65 l-16 -56 -49 146 c-27 80 -54 148 -61 152 -6 4 12
8 41 8 46 0 51 -2 46 -19z m121 11 c-6 -4 -21 -44 -34 -90 -12 -45 -25 -80
-28 -78 -2 3 5 36 17 75 25 84 26 88 4 94 -10 3 -2 5 17 6 19 0 30 -3 24 -7z
m-604 -42 c8 -16 8 -18 -4 -14 -17 6 -30 34 -16 34 5 0 14 -9 20 -20z m1369
-90 c1 -55 0 -104 -3 -109 -3 -5 -23 0 -43 10 -21 10 -46 16 -56 13 -14 -4
-17 -2 -12 6 4 6 16 10 26 7 11 -3 16 -1 13 5 -3 5 1 17 10 27 12 14 35 102
36 139 0 1 6 2 14 2 10 0 14 -23 15 -100z m-249 -42 c0 -4 -4 -8 -9 -8 -6 0
-12 4 -15 8 -3 5 1 9 9 9 8 0 15 -4 15 -9z m367 -20 c-3 -7 -5 -2 -5 12 0 14
2 19 5 13 2 -7 2 -19 0 -25z m-317 -17 c0 -24 19 -31 84 -31 69 0 91 -17 91
-68 0 -51 -31 -86 -85 -100 -76 -19 -157 15 -174 73 -5 17 1 23 30 34 33 12
34 14 20 30 -19 21 -21 67 -3 74 25 11 37 7 37 -12z m-697 -63 c3 -12 3 -28
-2 -35 -6 -12 -9 -12 -20 1 -7 8 -20 12 -29 9 -12 -4 -10 1 7 20 30 33 37 33
44 5z m17 -78 c-15 -36 -43 -54 -71 -45 -15 5 -19 14 -17 38 4 42 26 46 40 6
l11 -32 19 22 c10 13 18 30 18 39 0 8 3 12 6 9 4 -4 1 -20 -6 -37z"/>
<path d="M1562 1866 c-76 -106 -107 -228 -77 -303 24 -61 62 -68 98 -18 15 21
17 45 15 196 l-3 171 -33 -46z m15 -228 c2 -25 -23 -58 -44 -58 -8 0 -11 5 -8
10 4 6 12 7 18 3 7 -4 5 2 -3 12 -14 17 -13 18 5 11 11 -4 16 -4 13 0 -6 6 7
44 15 44 2 0 3 -10 4 -22z"/>
<path d="M2388 2262 c-18 -31 -34 -115 -43 -234 l-6 -78 41 -1 c22 -1 51 -1
65 -1 57 0 55 -3 55 85 0 94 -15 188 -36 229 -19 37 -54 37 -76 0z m87 -154
c7 -56 7 -58 -20 -68 -15 -6 -31 -8 -36 -4 -16 10 -38 60 -34 80 2 10 4 24 4
31 1 6 13 26 28 44 l27 32 12 -29 c7 -16 15 -55 19 -86z"/>
<path d="M2073 1113 c-4 -10 -8 -46 -8 -80 0 -46 5 -67 18 -80 16 -16 18 -16
33 -1 20 20 29 92 17 138 -11 40 -48 55 -60 23z m37 -38 c0 -14 -4 -25 -10
-25 -5 0 -10 11 -10 25 0 14 5 25 10 25 6 0 10 -11 10 -25z m-3 -73 c1 -28 -1
-32 -7 -17 -11 26 -12 55 -2 55 4 0 8 -17 9 -38z"/>
<path d="M1187 981 c-34 -41 -34 -84 1 -89 28 -4 34 12 30 74 l-3 48 -28 -33z"/>
<path d="M2041 814 c-16 -35 -6 -61 31 -80 55 -29 128 4 128 58 0 28 -40 48
-96 48 -45 0 -52 -3 -63 -26z m124 -34 c0 -35 -44 -50 -79 -26 -14 9 -26 24
-25 34 0 10 3 12 6 5 3 -10 8 -9 20 3 9 9 28 14 47 12 26 -2 31 -7 31 -28z"/>
</g>
</svg>
